<svg width="100" height="100" viewBox="0 0 100 100" fill="none" xmlns="http://www.w3.org/2000/svg">
<ellipse cx="51" cy="49" rx="49" ry="47" fill="white"/>
<path d="M100 3.2C100 1.4 98.6 0 96.8 0H3.2C1.4 0 0 1.4 0 3.2V96.8C0 98.6 1.4 100 3.2 100H96.8C98.6 100 100 98.6 100 96.8V3.2ZM84.8 62.8L73 58.6C72 61.4 70.6 63.8 68.6 66.2L78.2 74.2C75.4 77.6 72 80.4 68.2 82.6L62 71.8C59.6 73.2 56.8 74.2 53.8 74.8L56 87.2C53.8 87.6 51.6 87.8 49.4 87.8C47.2 87.8 45 87.6 43 87.2L45.2 74.8C42.2 74.2 39.6 73.2 37 71.8L30.8 82.6C27 80.4 23.6 77.6 20.8 74.2L30.4 66.2C28.6 64 27 61.4 26 58.6L14.2 62.8C12.8 58.6 11.8 54.4 11.8 50H24C24 47 24.8 44.2 25.8 41.4L14.4 37.2C15.8 33 18 29.2 20.8 26L30.4 34C32.2 31.8 34.6 29.8 37 28.4L30.8 17.6C34.6 15.4 38.8 13.8 43 13.2L45.2 25.6C46.6 25.4 48 25.2 49.6 25.2C51 25.2 52.6 25.4 53.8 25.6L56 13C60.4 13.8 64.4 15.2 68.2 17.4L62 28.2C64.6 29.6 66.8 31.6 68.6 33.8L78.2 25.8C81 29.2 83.2 33 84.8 37L73 41.4C74 44 74.6 46.8 74.6 50H87.2C87.2 54.4 86.4 58.8 84.8 62.8Z" fill="#652D90"/>
</svg>
