<svg width="125" height="125" viewBox="0 0 125 125" fill="none" xmlns="http://www.w3.org/2000/svg">
<g clip-path="url(#clip0_1_6)">
<path d="M29.165 19.27L62.5 0L95.835 19.27L83.335 26.04L62.5 14.06L41.145 26.04L29.165 19.27ZM95.31 43.23L83.33 36.46L62.5 48.44L41.145 36.46L29.165 43.23V57.295L50 69.275V93.755L61.98 101.045L73.96 93.755V69.795L94.795 57.815V43.23H95.31ZM95.31 81.77V67.71L83.335 75V88.54L95.31 81.77ZM104.165 86.46L83.33 98.44V112.5L116.665 93.23V54.69L104.165 62.5V86.46ZM92.19 31.25L104.17 38.54V52.605L116.15 45.315V31.25L104.17 23.96L92.19 31.25ZM50 103.645V117.705L61.98 124.995L73.96 117.705V103.645L61.98 110.935L50 103.645ZM29.165 81.77L41.145 88.54V74.48L29.165 67.19V81.77ZM50 31.25L61.98 38.54L74.48 31.25L62.5 23.96L50 31.25ZM20.31 38.54L32.81 31.25L20.31 23.96L8.33496 31.25V45.31L20.315 52.6V38.54H20.31ZM20.31 62.5L8.32996 55.21V93.75L41.665 113.02V98.96L20.83 86.98V62.5H20.31Z" fill="#F0B90B"/>
</g>
<defs>
<clipPath id="clip0_1_6">
<rect width="125" height="125" fill="white"/>
</clipPath>
</defs>
</svg>
